<?xml version="1.0" encoding="UTF-8"?>
<svg width="96px" height="96px" viewBox="0 0 96 96" version="1.1" xmlns="http://www.w3.org/2000/svg" xmlns:xlink="http://www.w3.org/1999/xlink">
    <!-- Generator: Sketch 43.1 (39012) - http://www.bohemiancoding.com/sketch -->
    <title>Wine App Icon</title>
    <defs></defs>
    <g id="Symbols" stroke="none" stroke-width="1" fill="none" fill-rule="evenodd">
        <g id="wine-app-icon">
            <rect id="Rectangle-5" fill="#9C27B0" x="0" y="0" width="96" height="96" rx="8"></rect>
            <path d="M56.05018,45.3435022 L56.05018,42.8575047 C55.2895522,38.7391055 50.652508,37.283377 50.652508,36.7356421 L50.652508,25.0143171 C50.7893725,24.902338 50.8729447,24.7483034 50.8729447,24.5775479 C50.8729447,24.2365436 50.5368392,23.960396 50.1220064,23.960396 L45.9761001,23.960396 C45.5612672,23.960396 45.2251618,24.2365436 45.2251618,24.5775479 C45.2251618,24.7401963 45.3032836,24.8871372 45.4286418,24.9975962 L45.4286418,36.7250015 C45.4286418,37.2418282 40.7237709,38.7512661 39.94982,42.8575047 L39.94982,45.3435022 L39.94982,68.5473718 C39.94982,70.4804049 43.5097706,70.8371166 45.2276676,71.012939 C48.264728,71.3240484 52.0891082,71.334689 54.8599484,70.0785975 C56.0107842,69.5572106 56.05018,68.9076304 56.05018,67.9743022 L56.05018,45.3435022 Z" id="Combined-Shape" fill="#FFFFFF" fill-rule="nonzero"></path>
            <g id="Group" transform="translate(4.000000, 4.000000)" fill-rule="nonzero" fill="#FFFFFF">
                <path d="M83.6,44 C84.8150264,44 85.8,43.0150264 85.8,41.8 C85.8,40.5849736 84.8150264,39.6 83.6,39.6 C82.3849736,39.6 81.4,40.5849736 81.4,41.8 C81.4,43.0150264 82.3849736,44 83.6,44 Z M83.6,46.2 C81.1699471,46.2 79.2,44.2300529 79.2,41.8 C79.2,39.3699471 81.1699471,37.4 83.6,37.4 C86.0300529,37.4 88,39.3699471 88,41.8 C88,44.2300529 86.0300529,46.2 83.6,46.2 Z" id="Oval-3"></path>
                <path d="M4.4,44 C5.61502645,44 6.6,43.0150264 6.6,41.8 C6.6,40.5849736 5.61502645,39.6 4.4,39.6 C3.18497355,39.6 2.2,40.5849736 2.2,41.8 C2.2,43.0150264 3.18497355,44 4.4,44 Z M4.4,46.2 C1.9699471,46.2 0,44.2300529 0,41.8 C0,39.3699471 1.9699471,37.4 4.4,37.4 C6.8300529,37.4 8.8,39.3699471 8.8,41.8 C8.8,44.2300529 6.8300529,46.2 4.4,46.2 Z" id="Oval-3-Copy"></path>
                <path d="M44,6.6 C45.2150264,6.6 46.2,5.61502645 46.2,4.4 C46.2,3.18497355 45.2150264,2.2 44,2.2 C42.7849736,2.2 41.8,3.18497355 41.8,4.4 C41.8,5.61502645 42.7849736,6.6 44,6.6 Z M44,8.8 C41.5699471,8.8 39.6,6.8300529 39.6,4.4 C39.6,1.9699471 41.5699471,0 44,0 C46.4300529,0 48.4,1.9699471 48.4,4.4 C48.4,6.8300529 46.4300529,8.8 44,8.8 Z" id="Oval-3"></path>
                <path d="M44,72.6 C59.7953438,72.6 72.6,59.7953438 72.6,44 C72.6,28.2046562 59.7953438,15.4 44,15.4 C28.2046562,15.4 15.4,28.2046562 15.4,44 C15.4,59.7953438 28.2046562,72.6 44,72.6 Z M44,74.8 C26.9896297,74.8 13.2,61.0103703 13.2,44 C13.2,26.9896297 26.9896297,13.2 44,13.2 C61.0103703,13.2 74.8,26.9896297 74.8,44 C74.8,61.0103703 61.0103703,74.8 44,74.8 Z" id="Oval-3-Copy-2"></path>
                <path d="M44,85.8 C45.2150264,85.8 46.2,84.8150264 46.2,83.6 C46.2,82.3849736 45.2150264,81.4 44,81.4 C42.7849736,81.4 41.8,82.3849736 41.8,83.6 C41.8,84.8150264 42.7849736,85.8 44,85.8 Z M44,88 C41.5699471,88 39.6,86.0300529 39.6,83.6 C39.6,81.1699471 41.5699471,79.2 44,79.2 C46.4300529,79.2 48.4,81.1699471 48.4,83.6 C48.4,86.0300529 46.4300529,88 44,88 Z" id="Oval-3-Copy"></path>
                <path d="M75.1126984,72.0014285 C75.9718518,71.1422751 75.9718518,69.7493121 75.1126984,68.8901587 C74.2535449,68.0310053 72.860582,68.0310053 72.0014285,68.8901587 C71.1422751,69.7493121 71.1422751,71.1422751 72.0014285,72.0014285 C72.860582,72.860582 74.2535449,72.860582 75.1126984,72.0014285 Z M70.4457936,73.5570635 C68.7274867,71.8387566 68.7274867,69.0528307 70.4457936,67.3345238 C72.1641005,65.6162169 74.9500264,65.6162169 76.6683333,67.3345238 C78.3866402,69.0528307 78.3866402,71.8387566 76.6683333,73.5570635 C74.9500264,75.2753703 72.1641005,75.2753703 70.4457936,73.5570635 Z" id="Oval-3"></path>
                <path d="M15.9985715,15.9985715 C16.8577249,16.8577249 18.2506879,16.8577249 19.1098413,15.9985715 C19.9689947,15.139418 19.9689947,13.7464551 19.1098413,12.8873016 C18.2506879,12.0281482 16.8577249,12.0281482 15.9985715,12.8873016 C15.139418,13.7464551 15.139418,15.139418 15.9985715,15.9985715 Z M14.4429365,17.5542064 C12.7246297,15.8358995 12.7246297,13.0499736 14.4429365,11.3316667 C16.1612434,9.61335983 18.9471693,9.61335983 20.6654762,11.3316667 C22.3837831,13.0499736 22.3837831,15.8358995 20.6654762,17.5542064 C18.9471693,19.2725133 16.1612434,19.2725133 14.4429365,17.5542064 Z" id="Oval-3-Copy"></path>
                <path d="M73.5570635,17.5542064 C74.4162169,16.6950529 74.4162169,15.30209 73.5570635,14.4429365 C72.69791,13.5837831 71.3049471,13.5837831 70.4457936,14.4429365 C69.5866402,15.30209 69.5866402,16.6950529 70.4457936,17.5542064 C71.3049471,18.4133598 72.69791,18.4133598 73.5570635,17.5542064 Z M68.8901587,19.1098413 C67.1718518,17.3915344 67.1718518,14.6056085 68.8901587,12.8873016 C70.6084656,11.1689947 73.3943915,11.1689947 75.1126984,12.8873016 C76.8310053,14.6056085 76.8310053,17.3915344 75.1126984,19.1098413 C73.3943915,20.8281482 70.6084656,20.8281482 68.8901587,19.1098413 Z" id="Oval-3"></path>
                <path d="M14.4429365,73.5570635 C15.30209,74.4162169 16.6950529,74.4162169 17.5542064,73.5570635 C18.4133598,72.69791 18.4133598,71.3049471 17.5542064,70.4457936 C16.6950529,69.5866402 15.30209,69.5866402 14.4429365,70.4457936 C13.5837831,71.3049471 13.5837831,72.69791 14.4429365,73.5570635 Z M12.8873016,75.1126984 C11.1689947,73.3943915 11.1689947,70.6084656 12.8873016,68.8901587 C14.6056085,67.1718518 17.3915344,67.1718518 19.1098413,68.8901587 C20.8281482,70.6084656 20.8281482,73.3943915 19.1098413,75.1126984 C17.3915344,76.8310053 14.6056085,76.8310053 12.8873016,75.1126984 Z" id="Oval-3-Copy"></path>
                <polygon id="Line" points="42.9 7.7 42.9 14.3 45.1 14.3 45.1 7.7"></polygon>
                <polygon id="Line" points="73.15 42.9 80.85 42.9 80.85 40.7 73.15 40.7"></polygon>
                <polygon id="Line-Copy-2" points="7.15 42.9 14.85 42.9 14.85 40.7 7.15 40.7"></polygon>
                <polygon id="Line-Copy" points="42.9 73.7 42.9 80.3 45.1 80.3 45.1 73.7"></polygon>
                <polygon id="Line" points="68.8901587 17.5542064 64.2232539 22.2211111 65.7788889 23.7767461 70.4457936 19.1098413"></polygon>
                <polygon id="Line" points="65.3899801 63.8343452 70.8347023 69.2790674 72.3903373 67.7234325 66.945615 62.2787103"></polygon>
                <polygon id="Line-Copy-2" points="18.7209326 17.1652977 24.1656548 22.6100199 25.7212897 21.054385 20.2765675 15.6096627"></polygon>
                <polygon id="Line-Copy" points="22.2211111 64.2232539 17.5542064 68.8901587 19.1098413 70.4457936 23.7767461 65.7788889"></polygon>
            </g>
        </g>
    </g>
</svg>
